<?xml version="1.0" encoding="utf-8"?>
<!-- Generator: Adobe Illustrator 25.0.1, SVG Export Plug-In . SVG Version: 6.00 Build 0)  -->
<svg version="1.1" id="Layer_1" xmlns="http://www.w3.org/2000/svg" xmlns:xlink="http://www.w3.org/1999/xlink"
	 viewBox="105 370 790 260" preserveAspectRatio="xMidYMid meet" xml:space="preserve">
<style type="text/css">
	.st0{fill:#080526;}
	.st1{fill:#0E61D1;}
</style>
<g>
	<g>
		<polygon class="st0" points="827.5247192,377.3475952 782.5132446,472.8394775 737.7513428,377.3475952 685.2788696,377.3475952 
			685.2788696,551.1729126 724.0728149,551.1729126 724.0728149,441.7555847 770.8258667,536.7485962 793.9530029,536.7485962 
			840.9523315,441.7555847 840.9523315,551.1729126 879.7467041,551.1729126 879.7467041,377.3475952 		"/>
		<polygon class="st0" points="583.3255615,480.7960205 659.2182617,480.7960205 659.2182617,447.7245178 583.3255615,447.7245178 
			583.3255615,411.9114075 669.8674316,411.9114075 669.8674316,377.3475952 544.5313721,377.3475952 544.5313721,551.1729126 
			670.6582642,551.1729126 670.6582642,516.8554077 583.3255615,516.8554077 		"/>
		<polygon class="st0" points="459.0819092,507.606842 487.3043518,551.1729126 534.5541382,551.1729126 482.7458496,471.4803772 		
			"/>
		<polygon class="st0" points="530.0775146,377.3475952 483.3246765,377.3475952 459.7160645,414.0943604 483.2653503,449.7123413 
					"/>
	</g>
	<g>
		<path class="st1" d="M417.1779175,377.3475952h-46.5037537l54.4595947,84.7993469l-58.4360046,89.0252991h46.7497864
			c19.5348816-30.3540649,38.3837585-60.0753479,58.6984253-90.8039551L417.1779175,377.3475952z"/>
		<polygon class="st1" points="271.7044983,480.7960205 359.0925293,480.7960205 359.0925293,447.7233276 271.7044983,447.7233276 
			271.7044983,411.9125671 358.2466125,411.9125671 358.2466125,377.3475952 271.7044983,377.3475952 232.9112396,377.3475952 
			232.9112396,489.2530212 147.6144714,377.3475952 111.30439,377.3475952 111.30439,551.1722412 150.0978699,551.1722412 
			150.0978699,442.252533 232.9112396,551.1722412 271.7044983,551.1722412 360.9823608,551.1722412 360.9823608,516.8554077 
			271.7044983,516.8554077 		"/>
	</g>
</g>
<g>
	<rect x="373.168335" y="609.7526855" class="st0" width="13.5828295" height="2.9594884"/>
	<polygon class="st0" points="297.3258057,609.9794922 312.0835876,609.9794922 312.0835876,606.9067383 297.3258057,606.9067383 
		297.3258057,598.5983887 312.7285461,598.5983887 312.7285461,595.5629272 294.0628357,595.5629272 294.0628357,622.1209106 
		313.3364258,622.1209106 313.3364258,618.9719238 297.3258057,618.9719238 	"/>
	<polygon class="st0" points="322.0617676,595.5629272 318.7615051,595.5629272 318.7615051,622.1209106 336.5177307,622.1209106 
		336.5177307,619.0481567 322.0617676,619.0481567 	"/>
	<polygon class="st0" points="463.163147,609.2212524 453.8308716,595.5629272 449.8835449,595.5629272 449.8835449,622.1209106 
		453.1470032,622.1209106 453.1470032,600.2679443 462.7829895,613.774353 463.4647522,613.774353 473.1021423,600.3444214 
		473.1021423,622.1209106 476.3655701,622.1209106 476.3655701,595.5629272 472.4203796,595.5629272 	"/>
	<path class="st0" d="M431.064209,595.1074219c-4.0964661,0-7.378418,1.3157349-9.8451538,3.9464111
		c-2.4663086,2.6311646-3.6980286,5.9185181-3.6980286,9.8634644c0,1.7960205,0.2830811,3.4986572,0.8541565,5.1040039
		c0.5682373,1.6057739,1.389801,3.0610352,2.4646301,4.3635864c1.0762329,1.3025513,2.4920654,2.338501,4.2489014,3.1107788
		c1.7580261,0.7713623,3.7371826,1.1566772,5.9386902,1.1566772c2.2001038,0,4.1724548-0.3853149,5.9185181-1.1566772
		c1.743927-0.7722778,3.155304-1.8082275,4.2306213-3.1107788c1.0750427-1.3025513,1.8973083-2.7643433,2.4648743-4.3830566
		c0.5687256-1.6184692,0.8536682-3.3145752,0.8536682-5.0845337c0.0262756-3.7686157-1.1433105-7.0055542-3.5092163-9.7114868
		C438.6211243,596.5003052,435.3131409,595.133728,431.064209,595.1074219z M438.5765686,616.3925781
		c-1.744873,2.0978394-4.2489014,3.1487427-7.5123596,3.1487427c-3.2873535,0-5.8164673-1.0377808-7.5873718-3.1114502
		c-1.769989-2.0741577-2.6555481-4.5772095-2.6555481-7.5125732c0-3.0593872,0.8963623-5.6204224,2.6935425-7.6821289
		c1.7964478-2.060791,4.3124695-3.0908203,7.5493774-3.0908203c2.2012939,0.0236816,4.0922546,0.5682373,5.6727295,1.630188
		c1.5802612,1.0621338,2.7249756,2.3832397,3.4332275,3.9658203c0.7078247,1.5805054,1.0509338,3.3056641,1.0246582,5.1769409
		C441.1948242,611.8026733,440.3226318,614.2926636,438.5765686,616.3925781z"/>
	<path class="st0" d="M405.1520996,619.388916c-3.3895874,0-5.9820557-1.0040283-7.776886-3.0148315
		c-1.7962341-2.0108643-2.7188721-4.4841309-2.7711792-7.4176025c-0.0238953-2.9592896,0.8792419-5.477356,2.7132568-7.5491943
		c1.8342285-2.0750732,4.4452209-3.112854,7.8348083-3.112854c2.9595032,0,5.4382019,0.9857178,7.4359131,2.9594727
		l2.2774658-2.1240845c-2.7078247-2.6555786-5.9447632-3.984375-9.7133789-3.984375
		c-2.9857483,0-5.5516968,0.6775513-7.7018433,2.03125c-2.1492004,1.3529663-3.7184143,3.052124-4.7043457,5.1021118
		c-0.9857178,2.0488281-1.4672241,4.2869263-1.4421082,6.7149658c0.0260315,3.7946167,1.2329102,7.0003662,3.6227112,9.6185913
		c2.3907776,2.6187744,5.7989197,3.9266968,10.2255859,3.9266968c3.9212952,0,7.2084045-1.3156738,9.8639526-3.9451904
		l-2.3147888-2.2774658C410.6536255,618.366394,408.1352844,619.388916,405.1520996,619.388916z"/>
	<polygon class="st0" points="352.6425781,609.9794922 367.400177,609.9794922 367.400177,606.9067383 352.6425781,606.9067383 
		352.6425781,598.5983887 368.0448608,598.5983887 368.0448608,595.5629272 349.3791504,595.5629272 349.3791504,622.1209106 
		368.652771,622.1209106 368.652771,618.9719238 352.6425781,618.9719238 	"/>
	<polygon class="st0" points="143.4788361,609.9794922 158.2366333,609.9794922 158.2366333,606.9067383 143.4788361,606.9067383 
		143.4788361,598.5983887 158.8813477,598.5983887 158.8813477,595.5629272 140.2153931,595.5629272 140.2153931,622.1209106 
		159.4892426,622.1209106 159.4892426,618.9719238 143.4788361,618.9719238 	"/>
	<polygon class="st0" points="184.5678558,595.7150879 184.5678558,595.6020508 180.8114471,595.6020508 173.4515381,606.3381958 
		166.1669159,595.6020508 162.3349915,595.6020508 162.3349915,595.7150879 171.3262634,608.5765381 161.8035431,622.0444336 
		161.8035431,622.1209106 165.5984192,622.1209106 173.4515381,610.9672852 181.3048859,622.1209106 185.099762,622.1209106 
		185.099762,622.0444336 175.5754089,608.5765381 	"/>
	<polygon class="st0" points="129.8962402,615.8980103 113.6191711,595.5629272 111.30439,595.5629272 111.30439,622.1209106 
		114.5678253,622.1209106 114.5678253,601.8613281 130.881958,622.1209106 133.159668,622.1209106 133.159668,595.5629272 
		129.8962402,595.5629272 	"/>
	<polygon class="st0" points="245.5372009,609.9794922 260.2950134,609.9794922 260.2950134,606.9067383 245.5372009,606.9067383 
		245.5372009,598.5983887 260.9399719,598.5983887 260.9399719,595.5629272 242.2742462,595.5629272 242.2742462,622.1209106 
		261.5478516,622.1209106 261.5478516,618.9719238 245.5372009,618.9719238 	"/>
	<polygon class="st0" points="186.1614532,598.5219116 195.2303619,598.5219116 195.2303619,622.1209106 198.4914551,622.1209106 
		198.4914551,598.5219116 207.5601196,598.5219116 207.5601196,595.5629272 186.1614532,595.5629272 	"/>
	<polygon class="st0" points="276.9503784,618.2507324 267.8835754,595.5629272 264.2033997,595.5629272 275.2062073,622.1980591 
		278.7735901,622.1980591 289.7374573,595.5629272 286.0950317,595.5629272 	"/>
	<polygon class="st0" points="223.6075897,595.5629272 220.3070984,595.5629272 220.3070984,622.1209106 238.063324,622.1209106 
		238.063324,619.0481567 223.6075897,619.0481567 	"/>
	<path class="st0" d="M649.0093384,617.9676514c-0.4411011-0.8224487-0.6636963-1.8790283-0.6636963-3.1686401v-4.9328003h2.3516235
		v-2.692627h-11.7983398c-1.6196289,0-3.0985718-0.3604736-4.4395752-1.081604
		c-1.3394165-0.7207031-2.0234985-1.8527832-2.0476685-3.3952637c-0.026001-1.2894287,0.5056152-2.3842163,1.5933838-3.2814941
		c1.0863037-0.8986816,2.6928101-1.3475952,4.8178711-1.3475952c4.0214233,0,6.0317993,1.3792725,6.0317993,4.1349487v0.0762329
		h3.1133423c0-1.34198-0.2593994-2.4857788-0.7788696-3.4343872c-0.5185547-0.9489136-1.2265625-1.6677246-2.125061-2.1618652
		c-0.8986816-0.4937134-1.8473511-0.8475952-2.8459473-1.0619507c-0.9990845-0.2148438-2.1035156-0.3225098-3.3192749-0.3225098
		c-2.8326416,0-5.1605225,0.663269-6.9807129,1.9918823c-1.8208618,1.3269043-2.732666,3.1555176-2.732666,5.480835
		c0,1.2920532,0.3989258,2.4740601,1.1970215,3.548645c0.7952881,1.0750732,1.8255615,1.8147583,3.0913086,2.2197876
		c-1.3400879,0.4545288-2.4728394,1.2385254-3.3950195,2.3516235c-0.9247437,1.1123047-1.3855591,2.3515625-1.3855591,3.7177124
		c0,2.6566772,0.8911743,4.6300049,2.6752319,5.9196777c1.7828369,1.289856,4.267395,1.9345703,7.4544067,1.9345703
		c3.6433716,0,6.2092896-1.2003174,7.7018433-3.604187c0.6315918,2.3776245,2.2012939,3.4766235,4.7043457,3.3002319v-2.9974365
		C650.1932373,619.1876831,649.4523926,618.7890015,649.0093384,617.9676514z M645.3493042,614.7230225
		c0,1.6196289-0.7077637,2.8199463-2.1247559,3.604187c-1.4160767,0.7842407-2.9093018,1.1761475-4.4768677,1.1761475
		c-2.0999756,0-3.7564087-0.4369507-4.9700928-1.3091431c-1.2146606-0.87146-1.8213501-2.0924072-1.8213501-3.6618652
		c0-1.2134399,0.593811-2.3016357,1.7821655-3.2611084c1.18927-0.961792,2.8330688-1.4420776,4.9330444-1.4420776h6.6778564
		V614.7230225z"/>
	<path class="st0" d="M708.8208618,595.5629272l-11.9127808,26.5579834h3.6053467l2.5791016-5.8425293h15.177124
		l2.6161499,5.8425293h3.5671387l-11.9124756-26.5579834H708.8208618z M704.3831177,613.2424316l6.2979736-14.3400879
		l6.2965698,14.3400879H704.3831177z"/>
	<polygon class="st0" points="782.7287598,609.9794922 797.487793,609.9794922 797.487793,606.9067383 782.7287598,606.9067383 
		782.7287598,598.5983887 798.1325073,598.5983887 798.1325073,595.5629272 779.4655762,595.5629272 779.4655762,622.1209106 
		798.7391968,622.1209106 798.7391968,618.9719238 782.7287598,618.9719238 	"/>
	<polygon class="st0" points="679.5343628,609.2212524 670.2009277,595.5629272 666.2536011,595.5629272 666.2536011,622.1209106 
		669.5166016,622.1209106 669.5166016,600.2679443 679.1539917,613.774353 679.8359985,613.774353 689.4733887,600.3444214 
		689.4733887,622.1209106 692.7355957,622.1209106 692.7355957,595.5629272 688.7901611,595.5629272 	"/>
	<rect x="826.8528442" y="595.5629272" class="st0" width="3.3002553" height="26.5580025"/>
	<polygon class="st0" points="774.7994385,595.7521362 774.7994385,595.5629272 770.6638184,595.5629272 758.902771,607.2871094 
		758.902771,595.5629272 755.6393433,595.5629272 755.6393433,622.1209106 758.902771,622.1209106 758.902771,609.6387329 
		771.8399658,622.1209106 775.9376221,622.1209106 775.9376221,621.894104 762.0522461,608.3488159 	"/>
	<polygon class="st0" points="801.2814941,598.5219116 810.3501587,598.5219116 810.3501587,622.1209106 813.6112061,622.1209106 
		813.6112061,598.5219116 822.6796265,598.5219116 822.6796265,595.5629272 801.2814941,595.5629272 	"/>
	<path class="st0" d="M747.8233032,609.6569824c1.2652588-1.5541992,1.8862915-3.4188843,1.8599854-5.5941162
		c0-2.3279419-0.7905884-4.3251343-2.3710327-5.9952393c-1.581665-1.6705322-3.7883301-2.5046997-6.6213989-2.5046997h-12.0649414
		v26.5579834h3.3002319v-9.5599976h6.4504395l8.2700806,9.5599976h4.1748047l-8.7647095-9.8266602
		C744.6358643,612.0935059,746.5594482,611.213562,747.8233032,609.6569824z M731.9261475,609.6014404v-11.0795288h8.7647095
		c1.7962646,0,3.1998901,0.571106,4.2120972,1.7069092c1.0117798,1.1392822,1.5042725,2.4418945,1.4789429,3.9081421
		c0,1.5933838-0.4985962,2.9036865-1.4974365,3.9266357c-0.9988403,1.0246582-2.4475098,1.5378418-4.3450928,1.5378418H731.9261475z
		"/>
	<path class="st0" d="M560.8551025,609.6569824c1.2657471-1.5541992,1.8865356-3.4188843,1.8604736-5.5941162
		c0-2.3279419-0.7907715-4.3251343-2.3712769-5.9952393c-1.5814209-1.6705322-3.7880859-2.5046997-6.6211548-2.5046997H541.657959
		v26.5579834h3.3004761v-9.5599976h6.4504395l8.2712402,9.5599976h4.173645l-8.7647095-9.8266602
		C557.6681519,612.0935059,559.5917358,611.213562,560.8551025,609.6569824z M544.9584351,609.6014404v-11.0795288h8.7647095
		c1.796936,0,3.1998901,0.571106,4.2120972,1.7069092c1.0117798,1.1392822,1.5037842,2.4418945,1.4801025,3.9081421
		c0,1.5933838-0.5,2.9036865-1.4985962,3.9266357c-0.9990845,1.0246582-2.4477539,1.5378418-4.3439331,1.5378418H544.9584351z"/>
	<path class="st0" d="M877.4277344,607.5910645v2.9198608h8.2714844v6.2988892
		c-2.0750732,1.7948608-4.4897461,2.6935425-7.246582,2.6935425c-3.4156494,0-6.0395508-1.0129395-7.8735352-3.0343018
		c-1.833313-2.0239868-2.7505493-4.4899902-2.7505493-7.3990479c0-3.0859375,0.9367065-5.6835327,2.8079834-7.7975464
		c1.8712769-2.1112061,4.4527588-3.1675415,7.7401123-3.1675415c1.3909302,0,2.7960205,0.2720947,4.2120361,0.815918
		c1.4158936,0.5443726,2.6290894,1.3079834,3.6410522,2.2957764l1.897583-2.2012329
		c-2.6818237-2.6555786-5.9321289-3.984375-9.7506714-3.984375c-4.2252808,0-7.588623,1.3234253-10.0916748,3.9658203
		c-2.505249,2.6436157-3.7437744,6.0015259-3.7175293,10.0731812c0,1.8208618,0.2830811,3.5354614,0.8530273,5.1400757
		c0.5687256,1.6065063,1.4041138,3.0420532,2.5030518,4.3066406c1.1011353,1.2657471,2.5551758,2.2643433,4.3634033,2.9974365
		c1.8091431,0.7338867,3.8513794,1.1013794,6.1265259,1.1013794c4.0488281,0,7.4755249-1.5065918,10.2821045-4.5160522v-10.5084229
		H877.4277344z"/>
	<polygon class="st0" points="496.702301,609.2212524 487.3688354,595.5629272 483.4215393,595.5629272 483.4215393,622.1209106 
		486.6845093,622.1209106 486.6845093,600.2679443 496.3209534,613.774353 497.0039062,613.774353 506.6401062,600.3444214 
		506.6401062,622.1209106 509.9033203,622.1209106 509.9033203,595.5629272 505.9578857,595.5629272 	"/>
	<polygon class="st0" points="520.2224731,609.9794922 534.980957,609.9794922 534.980957,606.9067383 520.2224731,606.9067383 
		520.2224731,598.5983887 535.6261597,598.5983887 535.6261597,595.5629272 516.9590454,595.5629272 516.9590454,622.1209106 
		536.2324219,622.1209106 536.2324219,618.9719238 520.2224731,618.9719238 	"/>
	<polygon class="st0" points="598.8718262,609.9794922 613.6296387,609.9794922 613.6296387,606.9067383 598.8718262,606.9067383 
		598.8718262,598.5983887 614.274353,598.5983887 614.274353,595.5629272 595.6083984,595.5629272 595.6083984,622.1209106 
		614.8822632,622.1209106 614.8822632,618.9719238 598.8718262,618.9719238 	"/>
	<polygon class="st0" points="855.8027344,615.8980103 839.5256958,595.5629272 837.2109375,595.5629272 837.2109375,622.1209106 
		840.4743652,622.1209106 840.4743652,601.8613281 856.788208,622.1209106 859.0661621,622.1209106 859.0661621,595.5629272 
		855.8027344,595.5629272 	"/>
	<path class="st0" d="M580.927063,619.388916c-3.390564,0-5.9827881-1.0040283-7.7769165-3.0148315
		c-1.796936-2.0108643-2.7195435-4.4841309-2.7718506-7.4176025c-0.0241699-2.9592896,0.8799438-5.477356,2.7144165-7.5491943
		c1.8328247-2.0750732,4.4437866-3.112854,7.8343506-3.112854c2.9594727,0,5.4375,0.9857178,7.4358521,2.9594727
		l2.2767944-2.1240845c-2.7078247-2.6555786-5.9450073-3.984375-9.7126465-3.984375
		c-2.9852905,0-5.5516968,0.6775513-7.7025757,2.03125c-2.1491699,1.3529663-3.7177124,3.052124-4.703186,5.1021118
		c-0.9871216,2.0488281-1.4674072,4.2869263-1.4432983,6.7149658c0.026062,3.7946167,1.2338867,7.0003662,3.6227417,9.6185913
		c2.3919678,2.6187744,5.7998657,3.9266968,10.2263184,3.9266968c3.9212646,0,7.208374-1.3156738,9.8639526-3.9451904
		l-2.3145752-2.2774658C586.428833,618.366394,583.9104614,619.388916,580.927063,619.388916z"/>
</g>
</svg>
